<svg width="1317" height="1311" viewBox="0 0 1317 1311" fill="none" xmlns="http://www.w3.org/2000/svg">
<path d="M653.752 0C319.416 2.38698e-05 340.294 145.083 340.294 145.083L340.667 295.388H659.716V340.517H213.942C213.942 340.517 0 316.238 0 653.808C-2.38541e-05 991.377 186.733 979.406 186.733 979.406H298.177V822.761C298.177 822.761 292.17 635.905 481.928 635.905C671.687 635.905 798.368 635.905 798.368 635.905C798.368 635.905 976.156 638.781 976.156 463.968C976.156 289.156 976.156 174.921 976.156 174.921C976.156 174.921 1003.15 0 653.752 0ZM477.828 101.074C509.571 101.073 535.227 126.746 535.227 158.51C535.227 190.274 509.571 215.947 477.828 215.947C446.085 215.947 420.429 190.274 420.429 158.51C420.429 126.746 446.085 101.074 477.828 101.074Z" fill="#0E9F6E"/>
<path d="M663.248 1311C997.584 1311 976.706 1165.92 976.706 1165.92L976.333 1015.61H657.284V970.483H1103.06C1103.06 970.483 1317 994.762 1317 657.192C1317 319.623 1130.27 331.594 1130.27 331.594H1018.82V488.239C1018.82 488.239 1024.83 675.095 835.072 675.095C645.313 675.095 518.632 675.095 518.632 675.095C518.632 675.095 340.844 672.219 340.844 847.031C340.844 1021.84 340.844 1136.08 340.844 1136.08C340.844 1136.08 313.851 1311 663.248 1311ZM839.172 1209.93C807.429 1209.93 781.773 1184.25 781.773 1152.49C781.773 1120.73 807.429 1095.05 839.172 1095.05C870.915 1095.05 896.571 1120.73 896.571 1152.49C896.571 1184.25 870.915 1209.93 839.172 1209.93Z" fill="#0E9F6E"/>
</svg>
