<svg width="144" height="144" viewBox="0 0 144 144" fill="none" xmlns="http://www.w3.org/2000/svg">
<path d="M142.642 70.2339L136.678 66.5388C136.628 65.9574 136.571 65.3773 136.508 64.8L141.643 60.0181C142.165 59.5317 142.398 58.8117 142.257 58.1162C142.12 57.4166 141.63 56.8406 140.963 56.5947L134.401 54.1494C134.237 53.5815 134.064 53.0178 133.887 52.4513L137.977 46.7728C138.394 46.1954 138.479 45.4442 138.207 44.7894C137.936 44.1332 137.342 43.6632 136.645 43.5477L129.731 42.4229C129.462 41.8985 129.182 41.3823 128.899 40.8742L131.806 34.4893C132.104 33.84 132.043 33.0901 131.646 32.4923C131.251 31.9 130.581 31.5536 129.866 31.5808L122.843 31.8253C122.48 31.3716 122.111 30.9219 121.734 30.4804L123.351 23.6472C123.514 22.953 123.309 22.2208 122.804 21.7181C122.302 21.2155 121.574 21.0077 120.874 21.1707L114.041 22.7873C113.598 22.4123 113.149 22.0415 112.694 21.6788L112.94 14.6554C112.967 13.9449 112.62 13.2697 112.028 12.8757C111.434 12.4791 110.683 12.4193 110.031 12.7141L103.66 15.6212C103.145 15.3387 102.629 15.0588 102.111 14.7885L100.983 7.87377C100.869 7.17279 100.399 6.57777 99.7418 6.31151C99.0857 6.03845 98.329 6.12675 97.7584 6.54245L92.0799 10.6315C91.5202 10.4535 90.9578 10.2824 90.3954 10.1194L87.9501 3.55784C87.7015 2.88947 87.1255 2.39905 86.4286 2.26049C85.7304 2.12328 85.0158 2.35558 84.5267 2.87452L79.7448 8.00962C79.1675 7.94577 78.586 7.88735 78.006 7.83981L74.3109 1.86245C73.9373 1.25792 73.2757 0.889771 72.5584 0.889771C71.8412 0.889771 71.1863 1.25792 70.8196 1.86245L67.1245 7.83981C66.543 7.88735 65.9616 7.94577 65.3856 8.00962L60.6037 2.87452C60.1187 2.35558 59.3987 2.12328 58.7018 2.26049C58.0022 2.40041 57.4262 2.88947 57.1803 3.55784L54.735 10.1194C54.1672 10.2824 53.6048 10.4549 53.0505 10.6315L47.372 6.54245C46.7947 6.12539 46.0421 6.03709 45.3886 6.31151C44.7325 6.5832 44.2611 7.17822 44.147 7.87377L43.0194 14.7885C42.4977 15.0588 41.9815 15.3373 41.4707 15.6212L35.0994 12.7141C34.4514 12.4179 33.7002 12.4791 33.1024 12.8757C32.5101 13.2697 32.1637 13.9449 32.1909 14.6554L32.4354 21.6788C31.9817 22.0415 31.532 22.4123 31.0878 22.7873L24.2546 21.1707C23.5604 21.009 22.8282 21.2155 22.3255 21.7181C21.8202 22.2221 21.615 22.9489 21.778 23.6472L23.3811 30.4804C23.0075 30.9233 22.638 31.3716 22.2753 31.8253L15.2519 31.5808C14.5441 31.5604 13.8662 31.9 13.4722 32.4923C13.0756 33.0819 13.0158 33.8372 13.3106 34.4893L16.2177 40.8742C15.9352 41.3864 15.6553 41.9026 15.385 42.4229L8.47028 43.5477C7.76794 43.6618 7.17564 44.1319 6.90801 44.7894C6.63631 45.4483 6.72462 46.2022 7.13896 46.7728L11.228 52.4513C11.0501 53.0123 10.8775 53.5761 10.7145 54.1494L4.15299 56.5947C3.48733 56.8433 2.99692 57.4193 2.85835 58.1162C2.71979 58.8145 2.95209 59.529 3.47239 60.0181L8.60749 64.8C8.54364 65.3773 8.48658 65.9588 8.43767 66.5388L2.4739 70.2339C1.86937 70.6075 1.50122 71.2677 1.50122 71.9864C1.50122 72.705 1.86937 73.3584 2.4739 73.7252L8.43767 77.4203C8.48658 78.0018 8.54364 78.5818 8.60749 79.1592L3.47239 83.9411C2.95209 84.4261 2.71979 85.1461 2.85835 85.843C2.99692 86.5426 3.48733 87.1172 4.15299 87.3645L10.7145 89.8098C10.8775 90.3776 11.0501 90.9414 11.228 91.5079L7.13896 97.1864C6.72326 97.7651 6.63496 98.5163 6.90801 99.1698C7.18107 99.8286 7.77473 100.299 8.48386 100.411L15.3986 101.536C15.6689 102.061 15.9461 102.577 16.2313 103.085L13.3242 109.456C13.028 110.104 13.0891 110.856 13.4858 111.453C13.8825 112.047 14.5577 112.393 15.2654 112.365L22.2753 112.119C22.6407 112.575 23.0088 113.022 23.3838 113.467L21.7808 120.3C21.6178 120.993 21.8229 121.713 22.3282 122.215C22.8295 122.722 23.559 122.924 24.2573 122.761L31.0905 121.158C31.5347 121.536 31.9844 121.903 32.4381 122.264L32.1936 129.288C32.1664 129.998 32.5128 130.673 33.1051 131.067C33.6947 131.462 34.4501 131.522 35.1021 131.226L41.4734 128.319C41.987 128.604 42.5032 128.881 43.0221 129.152L44.1497 136.066C44.2638 136.77 44.7338 137.365 45.3913 137.642C46.0475 137.915 46.8042 137.827 47.3747 137.413L53.0532 133.324C53.6143 133.502 54.1781 133.675 54.7513 133.838L57.1966 140.4C57.4452 141.066 58.0212 141.559 58.7181 141.695C59.4164 141.836 60.131 141.602 60.62 141.081L65.4019 135.945C65.9793 136.012 66.5607 136.068 67.1408 136.119L70.8359 142.083C71.2081 142.685 71.8697 143.056 72.5747 143.056C73.2798 143.056 73.9468 142.686 74.3272 142.083L78.0223 136.119C78.6037 136.068 79.1838 136.012 79.7611 135.945L84.543 141.081C85.028 141.602 85.748 141.836 86.4449 141.695C87.1445 141.557 87.7205 141.066 87.9664 140.4L90.4117 133.838C90.9796 133.675 91.5433 133.502 92.1098 133.324L97.7883 137.413C98.3657 137.827 99.1183 137.915 99.7717 137.642C100.429 137.372 100.899 136.776 101.013 136.066L102.141 129.152C102.663 128.881 103.179 128.6 103.69 128.319L110.061 131.226C110.709 131.522 111.46 131.462 112.058 131.067C112.65 130.67 112.995 129.998 112.969 129.288L112.725 122.264C113.179 121.901 113.628 121.536 114.071 121.158L120.904 122.761C121.599 122.924 122.331 122.722 122.833 122.215C123.339 121.711 123.544 120.987 123.381 120.3L121.778 113.467C122.153 113.022 122.522 112.575 122.884 112.119L129.907 112.365C130.615 112.393 131.293 112.047 131.687 111.453C132.083 110.861 132.145 110.107 131.847 109.456L128.94 103.085C129.224 102.57 129.502 102.054 129.771 101.536L136.686 100.411C137.39 100.299 137.982 99.8286 138.248 99.1698C138.52 98.5136 138.434 97.7569 138.017 97.1864L133.928 91.5079C134.105 90.9468 134.277 90.3831 134.442 89.8098L141.003 87.3645C141.67 87.1145 142.162 86.5399 142.298 85.843C142.439 85.1447 142.206 84.4302 141.684 83.9411L136.549 79.1592C136.611 78.5818 136.668 78.0004 136.719 77.4203L142.682 73.7252C143.287 73.353 143.655 72.6914 143.655 71.9864C143.655 71.2813 143.288 70.6143 142.684 70.2339H142.642ZM102.702 119.819C100.42 119.327 98.9797 117.075 99.4688 114.792C99.9565 112.51 102.199 111.057 104.482 111.546C106.764 112.033 108.217 114.29 107.728 116.572C107.239 118.854 104.998 120.308 102.716 119.819H102.702ZM100.678 106.098C98.5993 105.652 96.548 106.976 96.1133 109.06L93.9941 118.949C87.4597 121.911 80.1374 123.568 72.5299 123.568C64.705 123.568 57.3148 121.843 50.6582 118.746L48.539 108.856C48.0934 106.777 46.0529 105.446 43.9744 105.894L35.2393 107.769C33.6227 106.098 32.1148 104.318 30.7291 102.444H73.2499C73.7308 102.444 74.0514 102.357 74.0514 101.919V86.8401C74.0514 86.4027 73.7308 86.3157 73.2499 86.3157H60.8197V76.7927H74.2552C75.4819 76.7927 80.8167 77.1432 82.5148 83.9655C83.0487 86.0576 84.2265 92.8772 85.028 95.0644C85.8268 97.5097 89.0763 102.4 92.5405 102.4H113.733C113.973 102.4 114.23 102.373 114.5 102.324C113.033 104.321 111.417 106.209 109.691 107.976L100.753 106.06L100.678 106.098ZM41.8552 119.615C39.5729 120.107 37.3314 118.653 36.8424 116.368C36.3547 114.086 37.8042 111.831 40.0891 111.342C42.3714 110.854 44.6129 112.308 45.102 114.589C45.5897 116.871 44.1388 119.126 41.8552 119.615ZM25.6891 54.2717C26.6347 56.4045 25.6728 58.9041 23.5427 59.8551C21.4099 60.8019 18.9239 59.8387 17.9729 57.7086C17.022 55.5785 17.9892 53.0762 20.1193 52.1252C22.2522 51.1797 24.7382 52.1415 25.6891 54.2717ZM20.7307 66.009L29.8325 61.9607C31.7752 61.0981 32.6582 58.8226 31.7888 56.88L29.9141 52.6415H37.2771V85.7886H22.4695C21.1803 81.2513 20.4861 76.4694 20.4861 71.5245C20.4861 69.6362 20.588 67.7751 20.7836 65.9411L20.7307 66.009ZM60.6703 62.7894V53.0083H78.1948C79.1009 53.0083 84.5933 54.0557 84.5933 58.1569C84.5933 61.5668 80.382 62.7894 76.9178 62.7894H60.6159H60.6703ZM124.383 71.5924C124.383 72.8911 124.336 74.1735 124.241 75.4505H118.902C118.368 75.4505 118.153 75.801 118.153 76.324V78.7693C118.153 84.5293 114.907 85.7927 112.054 86.1052C109.337 86.4108 106.335 84.9695 105.968 83.3067C104.365 74.2999 101.702 72.3844 97.4908 69.0425C102.721 65.7278 108.155 60.8237 108.155 54.235C108.155 47.1572 103.305 42.7014 100.004 40.5142C95.358 37.4576 90.2229 36.8463 88.8372 36.8463H33.6825C41.1678 28.5052 51.3429 22.5821 62.7542 20.4086L69.2614 27.2282C70.7285 28.7633 73.1602 28.8312 74.7089 27.3532L81.9904 20.3977C97.2055 23.2369 110.111 32.7192 117.583 45.8015L112.597 57.0498C111.737 58.9924 112.615 61.2747 114.553 62.1305L124.144 66.3962C124.31 68.0943 124.397 69.8196 124.397 71.5585L124.383 71.5924ZM69.2288 14.6717C70.9133 13.0551 73.5895 13.123 75.1925 14.8089C76.7956 16.4934 76.7412 19.1696 75.0526 20.7862C73.3681 22.4028 70.6919 22.3349 69.0888 20.6477C67.4858 18.9631 67.5402 16.2869 69.2288 14.6703V14.6717ZM118.678 54.4754C119.622 52.3426 122.115 51.3781 124.248 52.329C126.38 53.2745 127.345 55.7796 126.394 57.9124C125.45 60.0452 122.957 61.0098 120.824 60.0588C118.691 59.1133 117.727 56.6083 118.678 54.4754Z" fill="#FF7425"/>
</svg>
