<svg width="60" height="60" viewBox="0 0 60 60" fill="none" xmlns="http://www.w3.org/2000/svg">
<path d="M51.2343 8.72269C48.4711 5.94647 45.1806 3.74548 41.5544 2.24795C37.9282 0.750432 34.0388 -0.013666 30.113 0.00018499C13.6627 0.00018499 0.256153 13.3427 0.241085 29.7227C0.241085 34.9689 1.61979 40.0727 4.22275 44.5914L0 60.0002L15.8363 55.8677C20.2172 58.2411 25.1253 59.4852 30.113 59.4864H30.1281C46.5821 59.4864 59.9849 46.1439 60 29.7489C60.0038 25.8416 59.2308 21.9721 57.7258 18.3635C56.2207 14.7548 54.0132 11.4783 51.2305 8.72269H51.2343ZM30.113 54.4539C25.6642 54.4554 21.2972 53.2637 17.4711 51.0039L16.567 50.4639L7.17227 52.9164L9.68106 43.7927L9.09342 42.8514C6.6065 38.9152 5.29124 34.3578 5.3001 29.7077C5.3001 16.1102 16.439 5.01769 30.1281 5.01769C33.3893 5.01186 36.6194 5.64871 39.6322 6.89153C42.645 8.13434 45.3808 9.95853 47.6821 12.2589C49.9913 14.5504 51.822 17.2743 53.0685 20.2736C54.315 23.2728 54.9527 26.4881 54.9447 29.7339C54.9297 43.3802 43.7908 54.4539 30.113 54.4539ZM43.7305 35.9514C42.9884 35.5802 39.3232 33.7839 38.6338 33.5289C37.9483 33.2852 37.4473 33.1577 36.9576 33.9002C36.4565 34.6389 35.0251 36.3227 34.5957 36.8064C34.1662 37.3052 33.7217 37.3614 32.9759 36.9939C32.2338 36.6189 29.8267 35.8389 26.9789 33.3002C24.7564 31.3314 23.2685 28.8939 22.824 28.1552C22.3945 27.4127 22.7825 27.0152 23.1554 26.6439C23.4832 26.3139 23.8975 25.7739 24.2705 25.3464C24.6472 24.9189 24.7715 24.6039 25.0163 24.1089C25.2612 23.6064 25.1444 23.1789 24.9598 22.8077C24.7715 22.4364 23.2835 18.7727 22.6544 17.2952C22.0517 15.8364 21.4377 16.0389 20.9781 16.0202C20.5487 15.9939 20.0477 15.9939 19.5467 15.9939C19.1684 16.0033 18.7961 16.0904 18.4531 16.2498C18.1102 16.4092 17.8041 16.6374 17.554 16.9202C16.8684 17.6627 14.951 19.4589 14.951 23.1227C14.951 26.7864 17.6256 30.3077 18.0023 30.8064C18.3714 31.3052 23.2534 38.8014 30.7458 42.0264C32.5163 42.7952 33.9101 43.2489 34.9987 43.5939C36.788 44.1639 38.4041 44.0777 39.6924 43.8939C41.1238 43.6764 44.1035 42.0939 44.7325 40.3577C45.3503 38.6177 45.3503 37.1327 45.162 36.8214C44.9774 36.5064 44.4764 36.3227 43.7305 35.9514Z" fill="#539FE4"/>
</svg>
