<svg width="310" height="349" viewBox="0 0 310 349" fill="none" xmlns="http://www.w3.org/2000/svg">
<path d="M303.607 261.128L304.473 261.628L304.973 260.762C307.438 256.493 309 251.635 309 247.209V101.14C309 96.714 307.44 91.8574 304.974 87.5879L304.474 86.7221L303.608 87.222L154.5 173.309L153 174.175L154.5 175.041L303.607 261.128Z" fill="#00599C" stroke="#00599C" stroke-width="2"/>
<path d="M295.25 271.025L294.75 270.159L295.25 271.025C299.083 268.812 302.508 265.032 304.973 260.762L305.473 259.896L304.607 259.396L155.5 173.309L155 173.02L154.5 173.309L5.39294 259.397L4.52695 259.897L5.0269 260.763C7.49164 265.032 10.9181 268.813 14.75 271.025L141.25 344.059C145.082 346.272 150.069 347.349 155 347.349C159.931 347.349 164.918 346.272 168.75 344.059L295.25 271.025Z" fill="#00599C" stroke="#00599C" stroke-width="2"/>
<path d="M304.608 88.953L305.474 88.453L304.974 87.587C302.508 83.3165 299.082 79.537 295.25 77.3241L294.75 78.19L295.25 77.324L168.75 4.28997C164.918 2.07694 159.931 1 155 1C150.069 1 145.082 2.07694 141.25 4.29002L14.7501 77.3239C10.9172 79.5365 7.49119 83.3169 5.02596 87.587C2.56073 91.8572 1 96.7145 1 101.14V247.209C1 251.635 2.56126 256.493 5.02705 260.762L5.5271 261.628L6.393 261.128L155.5 175.041L304.608 88.953Z" fill="#00599C" stroke="#00599C" stroke-width="2"/>
<path d="M155 276.175C98.757 276.175 53 230.418 53 174.175C53 117.932 98.757 72.175 155 72.175C191.292 72.175 225.139 91.705 243.331 123.143L199.188 148.687C190.083 132.951 173.15 123.175 155 123.175C126.878 123.175 104 146.053 104 174.175C104 202.296 126.878 225.175 155 225.175C173.152 225.175 190.085 215.399 199.191 199.66L243.334 225.203C225.142 256.644 191.294 276.175 155 276.175Z" fill="white"/>
<path d="M257 168.508H245.666V157.175H234.334V168.508H223V179.841H234.334V191.175H245.666V179.841H257V168.508Z" fill="white"/>
<path d="M299.5 168.508H288.166V157.175H276.834V168.508H265.5V179.841H276.834V191.175H288.166V179.841H299.5V168.508Z" fill="white"/>
</svg>
