<svg width="50" height="50" viewBox="0 0 50 50" fill="none" xmlns="http://www.w3.org/2000/svg">
<path fill-rule="evenodd" clip-rule="evenodd" d="M18.3334 1.66667C18.3334 1.22464 18.509 0.800716 18.8215 0.488155C19.1341 0.175595 19.558 0 20 0L30 0C30.4421 0 30.866 0.175595 31.1785 0.488155C31.4911 0.800716 31.6667 1.22464 31.6667 1.66667C31.6667 2.10869 31.4911 2.53262 31.1785 2.84518C30.866 3.15774 30.4421 3.33333 30 3.33333H26.6667V7.06667C30.223 7.33903 33.6532 8.50383 36.64 10.4533C36.7063 10.3609 36.7799 10.274 36.86 10.1933L40.1934 6.86C40.3868 6.66652 40.6165 6.51304 40.8693 6.40833C41.1221 6.30362 41.3931 6.24973 41.6667 6.24973C41.9403 6.24973 42.2113 6.30362 42.4641 6.40833C42.7169 6.51304 42.9466 6.66652 43.14 6.86C43.3335 7.05348 43.487 7.28318 43.5917 7.53597C43.6964 7.78877 43.7503 8.05971 43.7503 8.33333C43.7503 8.60696 43.6964 8.8779 43.5917 9.1307C43.487 9.38349 43.3335 9.61319 43.14 9.80667L39.89 13.0567C43.3811 16.4603 45.601 20.9571 46.1799 25.7983C46.7589 30.6395 45.6621 35.533 43.0721 39.6639C40.4822 43.7949 36.5553 46.914 31.9454 48.5019C27.3355 50.0898 22.3208 50.0507 17.7362 48.3912C13.1516 46.7316 9.27387 43.5517 6.74858 39.3809C4.22329 35.2101 3.20286 30.3002 3.85722 25.4686C4.51157 20.637 6.80122 16.1753 10.3449 12.8265C13.8886 9.47761 18.4725 7.44368 23.3334 7.06333V3.33333H20C19.558 3.33333 19.1341 3.15774 18.8215 2.84518C18.509 2.53262 18.3334 2.10869 18.3334 1.66667V1.66667ZM7.00003 28.3333C7.00003 23.5594 8.89645 18.9811 12.2721 15.6054C15.6478 12.2298 20.2261 10.3333 25 10.3333C29.7739 10.3333 34.3523 12.2298 37.728 15.6054C41.1036 18.9811 43 23.5594 43 28.3333C43 33.1072 41.1036 37.6856 37.728 41.0613C34.3523 44.4369 29.7739 46.3333 25 46.3333C20.2261 46.3333 15.6478 44.4369 12.2721 41.0613C8.89645 37.6856 7.00003 33.1072 7.00003 28.3333V28.3333ZM25 28.3333V13.6667C22.588 13.6664 20.213 14.261 18.0857 15.3978C15.9583 16.5347 14.1441 18.1786 12.8039 20.1841C11.4637 22.1896 10.6388 24.4947 10.4023 26.8951C10.1657 29.2956 10.5249 31.7173 11.4479 33.9458C12.3709 36.1743 13.8293 38.1407 15.6939 39.6709C17.5585 41.2011 19.7717 42.2478 22.1374 42.7183C24.5031 43.1888 26.9484 43.0685 29.2566 42.3682C31.5648 41.6679 33.6646 40.4091 35.37 38.7033L25 28.3333Z" fill="#F2533E"/>
</svg>
