<svg width="63" height="64" viewBox="0 0 63 64" fill="none" xmlns="http://www.w3.org/2000/svg">
<path d="M46.9212 49.984C45.5292 49.984 44.1372 49.816 42.7452 49.48C41.3532 49.144 40.2012 48.544 39.2892 47.68C37.1772 49.168 34.5132 49.912 31.2972 49.912C28.8972 49.912 26.6892 49.552 24.6732 48.832C22.7052 48.064 21.0012 46.936 19.5612 45.448C18.1692 43.96 17.0652 42.136 16.2492 39.976C15.4812 37.768 15.0972 35.224 15.0972 32.344C15.0972 29.896 15.4812 27.616 16.2492 25.504C17.0652 23.392 18.2412 21.568 19.7772 20.032C21.3132 18.448 23.1852 17.2 25.3932 16.288C27.6492 15.376 30.1932 14.92 33.0252 14.92C35.8572 14.92 38.3532 15.184 40.5132 15.712C42.7212 16.192 44.5452 16.696 45.9852 17.224V39.832C45.9852 40.936 46.2012 41.68 46.6332 42.064C47.1132 42.448 47.7852 42.64 48.6492 42.64C49.4172 42.64 50.1612 42.424 50.8812 41.992C51.6492 41.56 52.2972 40.792 52.8252 39.688C53.3532 38.536 53.7852 37 54.1212 35.08C54.4572 33.112 54.6252 30.64 54.6252 27.664C54.6252 24.688 54.0972 21.976 53.0412 19.528C52.0332 17.032 50.5452 14.92 48.5772 13.192C46.6572 11.416 44.2812 10.048 41.4492 9.088C38.6652 8.08 35.4972 7.576 31.9452 7.576C28.5372 7.576 25.3932 8.152 22.5132 9.304C19.6812 10.456 17.2092 12.112 15.0972 14.272C13.0332 16.384 11.4012 18.976 10.2012 22.048C9.04922 25.12 8.47322 28.576 8.47322 32.416C8.47322 36.4 9.04922 39.904 10.2012 42.928C11.3532 45.904 12.9852 48.4 15.0972 50.416C17.2572 52.432 19.8492 53.944 22.8732 54.952C25.9452 56.008 29.4012 56.536 33.2412 56.536C35.6412 56.536 37.8972 56.368 40.0092 56.032C42.1692 55.744 43.9692 55.456 45.4092 55.168L46.4892 61.936C45.2892 62.32 43.4652 62.728 41.0172 63.16C38.5692 63.592 35.9772 63.808 33.2412 63.808C28.6332 63.808 24.3132 63.208 20.2812 62.008C16.2492 60.808 12.7212 58.936 9.69722 56.392C6.72122 53.848 4.36922 50.608 2.64122 46.672C0.913219 42.688 0.0492188 37.936 0.0492188 32.416C0.0492188 27.088 0.961219 22.432 2.78522 18.448C4.60922 14.416 7.00922 11.056 9.98522 8.368C12.9612 5.68 16.3452 3.664 20.1372 2.32C23.9772 0.975996 27.9132 0.303996 31.9452 0.303996C36.3612 0.303996 40.4652 0.927997 44.2572 2.176C48.0492 3.376 51.3132 5.152 54.0492 7.504C56.8332 9.856 59.0172 12.784 60.6012 16.288C62.1852 19.744 62.9772 23.728 62.9772 28.24C62.9772 31.744 62.5932 34.864 61.8252 37.6C61.1052 40.288 60.0252 42.544 58.5852 44.368C57.1932 46.192 55.5132 47.584 53.5452 48.544C51.5772 49.504 49.3692 49.984 46.9212 49.984ZM36.7692 41.416C36.6732 41.032 36.6012 40.48 36.5532 39.76C36.5052 38.992 36.4812 38.272 36.4812 37.6V22.912C35.5212 22.72 34.5132 22.624 33.4572 22.624C31.8732 22.624 30.5292 22.888 29.4252 23.416C28.3212 23.896 27.4332 24.568 26.7612 25.432C26.0892 26.296 25.5852 27.328 25.2492 28.528C24.9612 29.68 24.8172 30.952 24.8172 32.344C24.8172 33.736 24.9372 35.032 25.1772 36.232C25.4172 37.384 25.8252 38.392 26.4012 39.256C27.0252 40.12 27.8412 40.816 28.8492 41.344C29.8572 41.824 31.1052 42.064 32.5932 42.064C33.4572 42.064 34.2732 42.016 35.0412 41.92C35.8092 41.776 36.3852 41.608 36.7692 41.416Z" fill="#539FE4"/>
</svg>
