<svg width="50" height="50" viewBox="0 0 50 50" fill="none" xmlns="http://www.w3.org/2000/svg">
<path d="M16.6041 33.3333L10.4166 39.5833C9.72913 40.2083 8.81246 40.625 7.81246 40.625C6.84552 40.625 5.91819 40.2409 5.23447 39.5572C4.55074 38.8734 4.16663 37.9461 4.16663 36.9792V36.4583L6.24996 21.0833C6.45998 18.7409 7.53817 16.5616 9.2728 14.9735C11.0074 13.3853 13.2731 12.5031 15.625 12.5H34.375C39.2916 12.5 43.3125 16.2708 43.75 21.0833L45.8333 36.4583V36.9792C45.8333 37.9461 45.4492 38.8734 44.7655 39.5572C44.0817 40.2409 43.1544 40.625 42.1875 40.625C41.1875 40.625 40.2708 40.2083 39.5833 39.5833L33.3958 33.3333H16.6041ZM14.5833 16.6667V20.8333H10.4166V22.9167H14.5833V27.0833H16.6666V22.9167H20.8333V20.8333H16.6666V16.6667H14.5833ZM34.375 16.6667C33.9606 16.6667 33.5631 16.8313 33.2701 17.1243C32.9771 17.4173 32.8125 17.8148 32.8125 18.2292C32.8125 18.6436 32.9771 19.041 33.2701 19.334C33.5631 19.627 33.9606 19.7917 34.375 19.7917C34.7894 19.7917 35.1868 19.627 35.4798 19.334C35.7728 19.041 35.9375 18.6436 35.9375 18.2292C35.9375 17.8148 35.7728 17.4173 35.4798 17.1243C35.1868 16.8313 34.7894 16.6667 34.375 16.6667ZM30.7291 20.3125C30.3147 20.3125 29.9173 20.4771 29.6243 20.7701C29.3312 21.0632 29.1666 21.4606 29.1666 21.875C29.1666 22.2894 29.3312 22.6868 29.6243 22.9799C29.9173 23.2729 30.3147 23.4375 30.7291 23.4375C31.1435 23.4375 31.541 23.2729 31.834 22.9799C32.127 22.6868 32.2916 22.2894 32.2916 21.875C32.2916 21.4606 32.127 21.0632 31.834 20.7701C31.541 20.4771 31.1435 20.3125 30.7291 20.3125V20.3125ZM38.0208 20.3125C37.6064 20.3125 37.209 20.4771 36.9159 20.7701C36.6229 21.0632 36.4583 21.4606 36.4583 21.875C36.4583 22.2894 36.6229 22.6868 36.9159 22.9799C37.209 23.2729 37.6064 23.4375 38.0208 23.4375C38.4352 23.4375 38.8326 23.2729 39.1256 22.9799C39.4187 22.6868 39.5833 22.2894 39.5833 21.875C39.5833 21.4606 39.4187 21.0632 39.1256 20.7701C38.8326 20.4771 38.4352 20.3125 38.0208 20.3125ZM34.375 23.9583C33.9606 23.9583 33.5631 24.123 33.2701 24.416C32.9771 24.709 32.8125 25.1064 32.8125 25.5208C32.8125 25.9352 32.9771 26.3327 33.2701 26.6257C33.5631 26.9187 33.9606 27.0833 34.375 27.0833C34.7894 27.0833 35.1868 26.9187 35.4798 26.6257C35.7728 26.3327 35.9375 25.9352 35.9375 25.5208C35.9375 25.1064 35.7728 24.709 35.4798 24.416C35.1868 24.123 34.7894 23.9583 34.375 23.9583Z" fill="#F95D83"/>
</svg>
